<svg xmlns="http://www.w3.org/2000/svg" viewBox="0 0 512 512"><rect width="512" height="512" rx="116" fill="#14142B"/><path fill="#FF6B4A" d="M63 201h50v50h-50zM63 261h50v50h-50zM123 141h50v50h-50zM123 201h50v50h-50zM123 261h50v50h-50zM123 321h50v50h-50zM183 81h50v50h-50zM183 141h50v50h-50zM183 201h50v50h-50zM183 261h50v50h-50zM183 321h50v50h-50zM183 381h50v50h-50z"/><path fill="#FF6B4A" d="M238 80A176 176 0 0 1 238 432Z"/><path fill="none" stroke="#FFFFFF" stroke-width="16" d="M238 80A176 176 0 0 1 238 432"/><path stroke="#FFFFFF" stroke-width="12" d="M414 152V360"/><circle cx="414" cy="152" r="22" fill="#FFFFFF"/><circle cx="414" cy="360" r="22" fill="#FFFFFF"/><rect x="212" y="54" width="52" height="52" rx="8" fill="#FFFFFF" stroke="#14142B" stroke-width="11"/><rect x="388" y="230" width="52" height="52" rx="8" fill="#FFFFFF" stroke="#14142B" stroke-width="11"/><rect x="212" y="406" width="52" height="52" rx="8" fill="#FFFFFF" stroke="#14142B" stroke-width="11"/></svg>
