<svg xmlns="http://www.w3.org/2000/svg" viewBox="0 0 512 512"><path fill="currentColor" fill-rule="evenodd" d="m251.2 463.1c-3.4-1.2-12.6-6.4-30-17.1-5.8-3.5-27.5-18.1-34.4-23-27.2-19.3-49.7-38.1-70.7-58.7-29.7-29.2-49-54.3-63.6-82.5-7.8-15.1-13.6-30.8-16.9-45.8-1.3-5.8-1.7-8.3-3.1-19.5-.7-5.5-.6-18.6 0-24 1.5-12.3 2.6-17.3 5.8-27.2 8.2-25.5 25.8-48.7 48.9-64.5 10.4-7.1 27-14.3 39.4-17.2 21.1-5 40.3-4.8 62.4.5 16.3 3.9 33.5 12.3 46.7 22.8 3.9 3.1 13 12 17.5 17.1l2.8 3.2 2.8-3.2c4.5-5.1 13.6-14 17.5-17.1 7.9-6.3 19.9-13.3 28.9-17 15.4-6.3 33.7-9.9 50.6-9.9 10 0 19 1.1 29.6 3.6 12.4 2.9 29 10.1 39.4 17.2 14.5 10 28.6 24.6 37 38.7 6.6 11 12 23.9 14.6 35.1 4.1 17.1 4.7 32.2 2.1 50.2-1 6.8-2.1 11.8-4.1 19.4-1.4 5.2-5.7 17.5-8.2 23.4-13.7 32.2-36.2 63.2-70.3 96.7-26 25.6-54.3 48.2-89.4 71.4-12.5 8.3-14.2 9.4-26 16.5-19.4 11.8-22.9 13.1-29.3 10.9z"/></svg>
